<?xml version="1.0" encoding="UTF-8" standalone="no"?>
<svg
   width="32"
   height="32"
   viewBox="0 0 1043.63 592.71"
   version="1.1"
   id="svg878"
   sodipodi:docname="medium_logo.svg"
   inkscape:version="1.1 (c4e8f9ed74, 2021-05-24)"
   xmlns:inkscape="http://www.inkscape.org/namespaces/inkscape"
   xmlns:sodipodi="http://sodipodi.sourceforge.net/DTD/sodipodi-0.dtd"
   xmlns="http://www.w3.org/2000/svg"
   xmlns:svg="http://www.w3.org/2000/svg">
  <defs
     id="defs882" />
  <sodipodi:namedview
     id="namedview880"
     pagecolor="#ffffff"
     bordercolor="#666666"
     borderopacity="1.0"
     inkscape:pageshadow="2"
     inkscape:pageopacity="0.0"
     inkscape:pagecheckerboard="0"
     showgrid="false"
     inkscape:zoom="1.5695218"
     inkscape:cx="204.83946"
     inkscape:cy="96.526216"
     inkscape:window-width="1920"
     inkscape:window-height="1044"
     inkscape:window-x="0"
     inkscape:window-y="36"
     inkscape:window-maximized="1"
     inkscape:current-layer="svg878" />
  <g
     id="Layer_2"
     data-name="Layer 2"
     style="fill:#cccccc;fill-opacity:1">
    <g
       id="Layer_1-2"
       data-name="Layer 1"
       style="fill:#cccccc;fill-opacity:1">
      <path
         d="M588.67,296.36c0,163.67-131.78,296.35-294.33,296.35S0,460,0,296.36,131.78,0,294.34,0,588.67,132.69,588.67,296.36"
         id="path870"
         style="fill:#cccccc;fill-opacity:1" />
      <path
         d="M911.56,296.36c0,154.06-65.89,279-147.17,279s-147.17-124.94-147.17-279,65.88-279,147.16-279,147.17,124.9,147.17,279"
         id="path872"
         style="fill:#cccccc;fill-opacity:1" />
      <path
         d="M1043.63,296.36c0,138-23.17,249.94-51.76,249.94s-51.75-111.91-51.75-249.94S963.29,46.42,991.87,46.42s51.76,111.9,51.76,249.94"
         id="path874"
         style="fill:#cccccc;fill-opacity:1" />
    </g>
  </g>
</svg>
