<?xml version="1.0" encoding="UTF-8" standalone="no"?>
<!-- Generator: Adobe Illustrator 24.2.3, SVG Export Plug-In . SVG Version: 6.00 Build 0)  -->

<svg
   width="32"
   height="32"
   version="1.1"
   id="Layer_1"
   x="0px"
   y="0px"
   viewBox="0 0 400 400"
   style="enable-background:new 0 0 400 400;"
   xml:space="preserve"
   sodipodi:docname="twitter_logo.svg"
   inkscape:version="1.1 (c4e8f9ed74, 2021-05-24)"
   xmlns:inkscape="http://www.inkscape.org/namespaces/inkscape"
   xmlns:sodipodi="http://sodipodi.sourceforge.net/DTD/sodipodi-0.dtd"
   xmlns="http://www.w3.org/2000/svg"
   xmlns:svg="http://www.w3.org/2000/svg"><sodipodi:namedview
   id="namedview9"
   pagecolor="#ffffff"
   bordercolor="#666666"
   borderopacity="1.0"
   inkscape:pageshadow="2"
   inkscape:pageopacity="0.0"
   inkscape:pagecheckerboard="0"
   showgrid="false"
   inkscape:zoom="25.65625"
   inkscape:cx="16"
   inkscape:cy="16"
   inkscape:window-width="1920"
   inkscape:window-height="1044"
   inkscape:window-x="0"
   inkscape:window-y="36"
   inkscape:window-maximized="1"
   inkscape:current-layer="Layer_1" /><defs
   id="defs13" />
<style
   type="text/css"
   id="style2">
	.st0{fill:#1B9DF0;}
	.st1{fill:#FFF155;}
</style>
<g
   id="Dark_Blue"
   style="fill:#cccccc;fill-opacity:1">
	<path
   id="circle4"
   style="fill:#cccccc;fill-opacity:1;stroke-width:0.08"
   class="st0"
   d="M 16 0 A 16 16 0 0 0 0 16 A 16 16 0 0 0 16 32 A 16 16 0 0 0 32 16 A 16 16 0 0 0 16 0 z M 21.347656 6.7011719 C 22.817625 6.7011719 24.137732 7.3145147 25.068359 8.3085938 C 26.231644 8.0759369 27.321184 7.6519547 28.304688 7.0703125 C 27.923976 8.2653229 27.120031 9.2600129 26.0625 9.8945312 C 27.098881 9.7676273 28.082711 9.4917054 28.992188 9.0898438 C 28.304792 10.115649 27.437439 11.015254 26.443359 11.734375 C 26.453935 11.945881 26.455078 12.168543 26.455078 12.390625 C 26.455078 19.127099 21.325613 26.900391 11.945312 26.900391 C 9.0688277 26.900391 6.3817813 26.053143 4.1503906 24.59375 C 4.5522525 24.646626 4.9547504 24.667969 5.3671875 24.667969 C 7.7572079 24.667969 9.9562455 23.85445 11.701172 22.490234 C 9.4697815 22.447933 7.5884534 20.977726 6.9433594 18.947266 C 7.2606187 19.010718 7.5784154 19.041016 7.90625 19.041016 C 8.371564 19.041016 8.8250349 18.977657 9.2480469 18.861328 C 6.9109032 18.385439 5.15625 16.333998 5.15625 13.859375 L 5.15625 13.796875 C 5.8436453 14.177587 6.6254879 14.41049 7.4609375 14.431641 C 6.086147 13.522164 5.1875 11.957483 5.1875 10.191406 C 5.1875 9.2607791 5.4414122 8.3817063 5.875 7.6308594 C 8.3919242 10.71885 12.146019 12.749431 16.386719 12.960938 C 16.291541 12.590801 16.25 12.20069 16.25 11.798828 C 16.25 8.9857953 18.534623 6.7011719 21.347656 6.7011719 z "
   transform="scale(12.5)" />
</g>
<g
   id="Logo__x2014__FIXED">
	
</g>
</svg>
